<?xml version="1.0" encoding="UTF-8" standalone="no"?>
<!-- Created with Inkscape (http://www.inkscape.org/) -->
<svg
   xmlns:dc="http://purl.org/dc/elements/1.1/"
   xmlns:cc="http://web.resource.org/cc/"
   xmlns:rdf="http://www.w3.org/1999/02/22-rdf-syntax-ns#"
   xmlns:svg="http://www.w3.org/2000/svg"
   xmlns="http://www.w3.org/2000/svg"
   xmlns:sodipodi="http://sodipodi.sourceforge.net/DTD/sodipodi-0.dtd"
   xmlns:inkscape="http://www.inkscape.org/namespaces/inkscape"
   version="1.0"
   width="751"
   height="601"
   viewBox="0 0 750 599.99902"
   id="Layer_1"
   xml:space="preserve"
   sodipodi:version="0.32"
   inkscape:version="0.45"
   sodipodi:docname="Interstate 3-Digit State Template.svg"
   sodipodi:docbase="C:\Documents and Settings\ltljltlj\Desktop\Signs\Interstate Route Shields"
   inkscape:output_extension="org.inkscape.output.svg.inkscape"
   sodipodi:modified="true"><metadata
   id="metadata36"><rdf:RDF><cc:Work
       rdf:about=""><dc:format>image/svg+xml</dc:format><dc:type
         rdf:resource="http://purl.org/dc/dcmitype/StillImage" /></cc:Work></rdf:RDF></metadata><sodipodi:namedview
   inkscape:window-height="959"
   inkscape:window-width="799"
   inkscape:pageshadow="2"
   inkscape:pageopacity="0.0"
   guidetolerance="10.0"
   gridtolerance="10.0"
   objecttolerance="10.0"
   borderopacity="1.0"
   bordercolor="#666666"
   pagecolor="#ffffff"
   id="base"
   width="751px"
   height="601px"
   inkscape:zoom="0.952"
   inkscape:cx="375"
   inkscape:cy="299.99952"
   inkscape:window-x="225"
   inkscape:window-y="1"
   inkscape:current-layer="Layer_1" /><defs
   id="defs62">
	
	
	
	
</defs>
<g
   transform="matrix(0.9986685,0,0,0.9986701,0.4993342,0.3989715)"
   id="g5"
   style="fill:#ffffff;fill-opacity:1;stroke:#000000;stroke-width:0.99999899;stroke-miterlimit:4;stroke-dasharray:none;stroke-opacity:1">
		<path
   id="path7"
   style="fill:#ffffff;fill-opacity:1;stroke:#000000;stroke-width:0.99999899;stroke-miterlimit:4;stroke-dasharray:none;stroke-opacity:1"
   d="M 38.915039,0 C 92.236328,15.525391 148.625,23.849609 206.95801,23.849609 C 265.29053,23.849609 321.6792,15.525391 375,0.0004883 C 428.32031,15.525391 484.70898,23.849609 543.04199,23.849609 C 601.375,23.849609 657.76367,15.525391 711.08398,0 C 736.06445,54.121094 750,114.3877 750,177.90918 C 750,395.71777 586.16016,575.25391 375,599.99902 C 163.83887,575.25391 0,395.71777 0,177.90918 C 0,114.3877 13.935059,54.121094 38.915039,0 z " />
		
			<path
   id="path9"
   style="fill:#ffffff;fill-opacity:1;stroke:#000000;stroke-width:0.99999899;stroke-linecap:round;stroke-linejoin:round;stroke-miterlimit:4;stroke-dasharray:none;stroke-opacity:1"
   d="M 38.915039,0 C 92.236328,15.525391 148.625,23.849609 206.95801,23.849609 C 265.29053,23.849609 321.6792,15.525391 375,0.0004883 C 428.32031,15.525391 484.70898,23.849609 543.04199,23.849609 C 601.375,23.849609 657.76367,15.525391 711.08398,0 C 736.06445,54.121094 750,114.3877 750,177.90918 C 750,395.71777 586.16016,575.25391 375,599.99902 C 163.83887,575.25391 0,395.71777 0,177.90918 C 0,114.3877 13.935059,54.121094 38.915039,0 z " />
	</g><g
   transform="matrix(1.0056032,0,0,1.0101352,-2.1013652,-3.7018951)"
   id="g11"
   style="fill:#003f87;fill-opacity:1">
		<path
   id="path13"
   style="fill:#003f87;fill-opacity:1"
   d="M 15,177.90918 C 15,165.12744 15.584961,152.48242 16.729004,139.99902 L 733.27051,139.99902 C 734.41504,152.48242 735,165.12744 735,177.90918 C 735,387.42285 577.85547,560.22852 375,584.89062 C 172.14453,560.22852 15,387.42285 15,177.90918 z " />
	</g><g
   transform="matrix(1.00604,0,0,1.0270827,-2.2645005,-3.1522955)"
   id="g15"
   style="fill:#af1e2d;fill-opacity:1">
		<path
   id="path17"
   style="fill:#af1e2d;fill-opacity:1"
   d="M 47.37793,17.942871 C 98.270019,31.578125 151.76562,38.849121 206.95996,38.849121 C 265.2207,38.849121 321.58936,30.748047 375,15.611328 C 428.41113,30.748047 484.7793,38.849121 543.04004,38.849121 C 598.23438,38.849121 651.73047,31.578613 702.62109,17.942871 C 716.88281,51.567383 726.78516,87.489258 731.61719,124.99902 L 18.381836,124.99902 C 23.214844,87.489258 33.116211,51.567383 47.37793,17.942871 z " />
	</g>



<path
   style="font-size:93.28099823px;font-style:normal;font-variant:normal;font-weight:normal;font-stretch:normal;text-align:center;line-height:125%;writing-mode:lr-tb;text-anchor:middle;fill:#ffffff;fill-opacity:1;font-family:Roadgeek 2005 Series C"
   d="M 183.53777,112.74918 L 183.53777,50.332876 L 192.29397,50.332876 L 192.29397,112.74918 L 183.53777,112.74918 z M 234.32652,112.74918 L 215.04301,70.921299 L 215.04301,112.74918 L 206.09918,112.74918 L 206.09918,50.332876 L 215.04301,50.332876 L 232.18297,87.782657 L 232.18297,50.332876 L 241.1268,50.332876 L 241.1268,112.74918 L 234.32652,112.74918 z M 270.23545,58.625673 L 270.23545,112.74918 L 261.20065,112.74918 L 261.20065,58.625673 L 249.83466,58.625673 L 249.83466,50.332876 L 281.60144,50.332876 L 281.60144,58.625673 L 270.23545,58.625673 z M 290.15862,112.74918 L 290.15862,50.332876 L 319.50325,50.332876 L 319.50325,59.09191 L 299.10244,59.09191 L 299.10244,74.833157 L 312.05195,74.833157 L 312.05195,83.404561 L 299.10244,83.404561 L 299.10244,103.99298 L 321.9254,103.99298 L 321.9254,112.74918 L 290.15862,112.74918 z M 358.17549,112.74918 L 349.88269,83.404561 L 341.31412,83.404561 L 341.31412,112.74918 L 332.3703,112.74918 L 332.3703,50.332876 L 351.0028,50.332876 C 353.42494,50.332938 355.64525,50.736632 357.66375,51.543959 C 359.6822,52.351409 361.42112,53.469623 362.88052,54.898605 C 364.33984,56.327702 365.45758,58.082256 366.23374,60.16227 C 367.00981,62.24239 367.39787,64.524779 367.39791,67.009442 C 367.39787,70.735604 366.65256,73.903088 365.16196,76.511902 C 363.67129,79.120788 361.43533,80.983372 358.4541,82.099661 L 367.39791,112.74918 L 358.17549,112.74918 z M 358.64173,67.009442 C 358.6417,64.587322 357.89637,62.662194 356.40576,61.234051 C 354.9151,59.806011 352.9587,59.091964 350.53656,59.09191 L 341.31412,59.09191 L 341.31412,74.833157 L 350.53656,74.833157 C 353.14444,74.833195 355.14727,74.165584 356.54506,72.830321 C 357.9428,71.495138 358.6417,69.554847 358.64173,67.009442 L 358.64173,67.009442 z M 409.6238,95.700188 C 409.62376,98.247459 409.17363,100.62319 408.27342,102.82739 C 407.37312,105.03161 406.13124,106.94111 404.54777,108.55587 C 402.96423,110.17066 401.13196,111.45945 399.05098,112.42224 C 396.96994,113.38505 394.71835,113.86645 392.29621,113.86645 C 389.56319,113.86645 387.11023,113.33861 384.93731,112.28294 C 382.76436,111.22727 380.93257,109.79918 379.44194,107.99867 C 377.9513,106.19815 376.80229,104.11761 375.9949,101.75704 C 375.18751,99.396471 374.78382,96.943507 374.78382,94.398132 L 383.54002,94.398132 C 383.54001,95.702101 383.71058,96.990416 384.05174,98.26308 C 384.39288,99.535774 384.92071,100.68479 385.63525,101.71013 C 386.34975,102.73548 387.25049,103.5585 388.33744,104.17919 C 389.42436,104.7999 390.74394,105.11026 392.29621,105.11025 C 393.47695,105.11026 394.61079,104.86198 395.69776,104.3654 C 396.78467,103.86886 397.7162,103.18561 398.49235,102.31567 C 399.26844,101.44574 399.88914,100.4365 400.35446,99.287953 C 400.81972,98.139428 401.05236,96.943507 401.05239,95.700188 C 401.05236,93.899691 400.67995,92.301024 399.93513,90.904183 C 399.19025,89.507385 397.8863,88.094455 396.02327,86.665389 C 395.71243,86.35459 395.58828,86.18354 395.65086,86.152242 C 395.71337,86.120997 395.52716,85.950421 395.09222,85.640517 C 394.65723,85.330665 393.74087,84.725124 392.34312,83.823891 C 390.94533,82.922716 388.66293,81.386119 385.49595,79.214097 C 382.95057,77.474265 381.04108,75.439684 379.76746,73.110348 C 378.49382,70.781091 377.85701,68.219622 377.85702,65.425936 C 377.85701,63.189556 378.2607,61.093379 379.0681,59.137398 C 379.87548,57.181525 381.00886,55.458243 382.46824,53.967548 C 383.92759,52.476971 385.62007,51.312324 387.54568,50.473601 C 389.47127,49.635002 391.55134,49.215671 393.7859,49.215607 C 396.0223,49.215671 398.08768,49.619366 399.98204,50.426692 C 401.87634,51.234143 403.52192,52.352357 404.91877,53.781337 C 406.31556,55.210436 407.4333,56.918555 408.272,58.9057 C 409.11062,60.892952 409.56122,63.066363 409.6238,65.425936 L 401.05239,65.425936 C 400.92917,63.2521 400.18433,61.513183 398.81786,60.209179 C 397.45135,58.90528 395.77402,58.253304 393.7859,58.25325 C 391.73707,58.253304 389.99863,58.936552 388.57055,60.302995 C 387.14245,61.669543 386.4284,63.377188 386.42842,65.425936 C 386.4284,66.978216 386.83209,68.282167 387.63951,69.337794 C 388.44687,70.393507 389.99911,71.573317 392.29621,72.877229 C 398.32127,76.355103 402.71547,79.895009 405.47882,83.496955 C 408.24211,87.09896 409.62376,91.166701 409.6238,95.700188 L 409.6238,95.700188 z M 435.62513,58.625673 L 435.62513,112.74918 L 426.59034,112.74918 L 426.59034,58.625673 L 415.22435,58.625673 L 415.22435,50.332876 L 446.99113,50.332876 L 446.99113,58.625673 L 435.62513,58.625673 z M 481.6321,112.74918 L 477.25401,95.700188 L 463.83827,95.700188 L 459.74164,112.74918 L 450.70398,112.74918 L 466.26044,50.332876 L 475.01948,50.332876 L 490.57593,112.74918 L 481.6321,112.74918 z M 470.45374,68.965371 L 466.07565,86.943996 L 475.01948,86.943996 L 470.45374,68.965371 z M 514.77201,58.625673 L 514.77201,112.74918 L 505.73722,112.74918 L 505.73722,58.625673 L 494.37123,58.625673 L 494.37123,50.332876 L 526.13801,50.332876 L 526.13801,58.625673 L 514.77201,58.625673 z M 534.6952,112.74918 L 534.6952,50.332876 L 564.03982,50.332876 L 564.03982,59.09191 L 543.63903,59.09191 L 543.63903,74.833157 L 556.58852,74.833157 L 556.58852,83.404561 L 543.63903,83.404561 L 543.63903,103.99298 L 566.46199,103.99298 L 566.46199,112.74918 L 534.6952,112.74918 z "
   id="text7023" />

<path
   style="font-size:372.63015747px;font-style:normal;font-variant:normal;font-weight:normal;font-stretch:normal;text-align:center;line-height:125%;writing-mode:lr-tb;text-anchor:middle;fill:#ffffff;fill-opacity:1;font-family:Roadgeek 2005 Series C"
   d="M 170.1605,449.79977 C 170.65326,441.35435 171.21048,434.02525 171.83215,427.81246 C 172.45379,421.59971 173.19864,416.01049 174.0667,411.04478 C 174.93473,406.07915 176.05295,401.29733 177.42138,396.69929 C 178.78976,392.10137 180.46709,387.06936 182.45338,381.60327 C 192.64245,355.52411 206.05734,334.78202 222.69808,319.37694 C 224.1915,318.13376 225.74564,316.8298 227.3605,315.46506 C 228.97522,314.10058 230.96149,312.54833 233.31931,310.80832 C 235.67698,309.06858 238.53318,306.95722 241.88794,304.47424 C 245.24252,301.99155 249.40269,299.01026 254.36846,295.53034 C 262.57119,289.81429 268.09976,284.96992 270.95418,280.99722 C 273.80838,277.02486 275.23554,271.9341 275.23565,265.72493 C 275.23554,261.00205 274.30495,256.52916 272.44389,252.30625 C 270.58259,248.08373 268.09976,244.35758 264.99538,241.1278 C 261.89078,237.89842 258.16463,235.35115 253.81693,233.48597 C 249.46903,231.62121 244.93359,230.68873 240.2106,230.68851 C 235.24485,230.68873 230.65066,231.62121 226.42802,233.48597 C 222.20523,235.35115 218.53974,237.89842 215.43152,241.1278 C 212.32318,244.35758 209.83845,248.08373 207.97732,252.30625 C 206.11609,256.52916 205.1855,261.00205 205.18555,265.72493 L 170.1605,265.72493 C 170.40308,256.03638 172.32681,246.90675 175.93167,238.33603 C 179.5365,229.76572 184.44341,222.31153 190.65243,215.97344 C 196.86137,209.63581 204.18858,204.66636 212.63406,201.06505 C 221.07943,197.46424 230.2716,195.66371 240.2106,195.66346 C 249.89926,195.66371 258.90569,197.52679 267.22993,201.25268 C 275.55394,204.97908 282.88304,210.00919 289.21725,216.34302 C 295.55118,222.67733 300.51874,230.06897 304.11995,238.51797 C 307.72086,246.9674 309.52139,256.03638 309.52154,265.72493 C 309.52139,285.59537 302.44057,301.98966 288.27908,314.90784 C 287.03563,315.90111 285.73167,316.8317 284.36719,317.69961 C 283.00245,318.56778 281.69848,319.62346 280.4553,320.86665 L 271.88098,327.20072 L 262.94277,333.1709 L 253.25402,340.24414 C 249.28139,343.22365 245.36951,346.76406 241.51836,350.86538 C 237.66704,354.96689 233.94089,359.43978 230.33991,364.28406 C 226.73878,369.12852 223.57174,374.22117 220.83879,379.56204 C 218.10572,384.90304 215.86737,390.18143 214.12376,395.39723 C 212.63779,398.62686 211.58401,401.54561 210.96241,404.15349 C 210.3407,406.76146 209.5333,410.30187 208.54022,414.77472 L 309.52154,414.77472 L 309.52154,449.79977 L 170.1605,449.79977 z M 362.47987,449.79977 L 362.47987,244.85774 L 346.83232,244.85774 L 346.83232,217.65646 C 354.03441,217.15634 359.80937,215.41646 364.15721,212.43682 C 368.50497,209.45766 372.04348,205.35624 374.77275,200.13257 L 398.63073,200.13257 L 398.63073,449.79977 L 362.47987,449.79977 z M 580.98843,362.23715 C 580.98828,375.39815 579.00011,387.56783 575.02394,398.74621 C 571.04746,409.9247 565.58144,419.61344 558.62584,427.81246 C 551.66999,436.01152 543.47284,442.47068 534.03439,447.18995 C 524.59572,451.90924 514.28533,454.26888 503.10318,454.26888 C 491.92845,454.26888 481.18593,452.4058 470.87558,448.67965 C 460.56514,444.95351 450.81576,439.48938 441.62739,432.28725 L 465.09872,406.95095 C 471.30766,411.1737 477.02197,414.27819 482.24167,416.26442 C 487.46125,418.25073 493.17556,419.24386 499.38461,419.24383 C 506.08629,419.24386 512.29527,417.81481 518.01157,414.95667 C 523.72768,412.0986 528.63459,408.06163 532.73232,402.84574 C 536.82984,397.62994 540.05942,391.42096 542.42107,384.21878 C 544.78249,377.01673 545.96326,369.06787 545.96338,360.37218 C 545.96326,346.70341 542.85687,336.01964 536.64421,328.32084 C 530.43133,320.62228 522.1091,316.77294 511.67749,316.77281 C 500.74536,316.77294 490.81023,320.87057 481.87208,329.06569 L 447.5862,324.59659 L 453.92027,200.13257 L 571.29968,200.13257 L 571.29968,235.16899 L 487.08035,235.16899 L 484.47622,287.70657 C 490.68514,285.47028 495.71525,284.04123 499.56656,283.41941 C 503.41772,282.79792 507.70487,282.48709 512.42803,282.48692 C 522.60946,282.48709 531.92293,284.41271 540.36847,288.26378 C 548.81378,292.11518 556.01779,297.5812 561.98052,304.66187 C 567.94297,311.74283 572.6016,320.12761 575.95642,329.81623 C 579.31094,339.50509 580.98828,350.31205 580.98843,362.23715 L 580.98843,362.23715 z "
   id="text7029" />

<path
   transform="scale(1.0000209,0.9999791)"
   style="font-size:55.89564133px;font-style:normal;font-variant:normal;font-weight:normal;font-stretch:normal;text-align:center;line-height:125%;writing-mode:lr-tb;text-anchor:middle;fill:#ffffff;fill-opacity:1;font-family:Roadgeek 2005 Series D"
   d="M 301.48673,187.65323 L 287.17849,162.27605 L 287.17849,187.65323 L 281.25254,187.65323 L 281.25254,150.2024 L 287.17849,150.2024 L 300.81635,174.12624 L 300.81635,150.2024 L 306.7423,150.2024 L 306.7423,187.65323 L 301.48673,187.65323 z M 315.64146,187.65323 L 315.64146,150.2024 L 337.72133,150.2024 L 337.72133,156.12835 L 321.56741,156.12835 L 321.56741,165.29531 L 332.46747,165.29531 L 332.46747,171.33214 L 321.56741,171.33214 L 321.56741,181.6164 L 338.89492,181.6164 L 338.89492,187.65323 L 315.64146,187.65323 z M 358.36321,187.65323 L 353.77973,187.65323 L 341.92954,150.2024 L 348.13353,150.2024 L 356.12691,175.18895 L 364.0077,150.2024 L 370.32428,150.2024 L 358.36321,187.65323 z M 397.98381,187.65323 L 394.29417,177.1455 L 382.61285,177.1455 L 378.92321,187.65323 L 372.60663,187.65323 L 385.51954,150.2024 L 391.38749,150.2024 L 404.30039,187.65323 L 397.98381,187.65323 z M 388.5371,160.59925 L 384.68028,171.10868 L 392.17045,171.10868 L 388.5371,160.59925 z M 435.45512,168.87238 C 435.45509,172.63652 434.88677,175.94378 433.75017,178.79416 C 432.61351,181.64456 430.98305,183.88967 428.85879,185.52951 C 428.15029,186.20046 427.32099,186.70338 426.37088,187.03829 C 425.42073,187.37319 424.46122,187.57817 423.49234,187.65323 L 421.36862,187.65323 L 409.96535,187.65323 L 409.96535,150.2024 L 422.039,150.2024 C 422.97149,150.20244 423.78231,150.23058 424.47147,150.28684 C 425.1606,150.34316 425.78463,150.4458 426.34359,150.59473 C 426.9025,150.74374 427.40543,150.94872 427.85237,151.20967 C 428.29926,151.4707 428.78371,151.78712 429.30571,152.15895 C 431.281,153.87388 432.79973,156.15652 433.8619,159.00688 C 434.92402,161.8573 435.45509,165.14579 435.45512,168.87238 L 435.45512,168.87238 z M 429.41829,168.87238 C 429.41827,166.33872 429.1479,164.08422 428.60718,162.10888 C 428.06642,160.13359 427.33037,158.66149 426.39903,157.69256 C 425.91456,157.24568 425.35563,156.87324 424.72223,156.57527 C 424.08879,156.27735 423.38088,156.12838 422.59851,156.12835 L 415.8913,156.12835 L 415.8913,181.6164 L 421.81554,181.6164 C 422.78442,181.61641 423.59496,181.50468 424.24716,181.28121 C 424.89933,181.05776 425.4864,180.68504 426.0084,180.16306 C 427.12624,179.0452 427.97403,177.508 428.55175,175.55143 C 429.12942,173.5949 429.41827,171.36854 429.41829,168.87238 L 429.41829,168.87238 z M 465.66995,187.65323 L 461.9803,177.1455 L 450.29899,177.1455 L 446.60934,187.65323 L 440.29277,187.65323 L 453.20567,150.2024 L 459.07362,150.2024 L 471.98652,187.65323 L 465.66995,187.65323 z M 456.22323,160.59925 L 452.36642,171.10868 L 459.85658,171.10868 L 456.22323,160.59925 z "
   id="text2177" />
</svg>