<?xml version="1.0" encoding="UTF-8" standalone="no"?>
<!-- Created with Inkscape (http://www.inkscape.org/) -->

<svg
   xmlns:dc="http://purl.org/dc/elements/1.1/"
   xmlns:cc="http://creativecommons.org/ns#"
   xmlns:rdf="http://www.w3.org/1999/02/22-rdf-syntax-ns#"
   xmlns:svg="http://www.w3.org/2000/svg"
   xmlns="http://www.w3.org/2000/svg"
   xmlns:sodipodi="http://sodipodi.sourceforge.net/DTD/sodipodi-0.dtd"
   xmlns:inkscape="http://www.inkscape.org/namespaces/inkscape"
   width="357.65625"
   height="357.84375"
   id="svg4779"
   version="1.1"
   inkscape:version="0.92.4 (5da689c313, 2019-01-14)"
   sodipodi:docname="interstate-shield.svg">
  <defs
     id="defs4781" />
  <sodipodi:namedview
     id="base"
     pagecolor="#ffffff"
     bordercolor="#666666"
     borderopacity="1.0"
     inkscape:pageopacity="0.0"
     inkscape:pageshadow="2"
     inkscape:zoom="3.959798"
     inkscape:cx="180.17647"
     inkscape:cy="139.05542"
     inkscape:document-units="px"
     inkscape:current-layer="layer1"
     showgrid="false"
     inkscape:window-width="3840"
     inkscape:window-height="2035"
     inkscape:window-x="5459"
     inkscape:window-y="-13"
     inkscape:window-maximized="1"
     fit-margin-top="0"
     fit-margin-left="0"
     fit-margin-right="0"
     fit-margin-bottom="0" />
  <metadata
     id="metadata4784">
    <rdf:RDF>
      <cc:Work
         rdf:about="">
        <dc:format>image/svg+xml</dc:format>
        <dc:type
           rdf:resource="http://purl.org/dc/dcmitype/StillImage" />
        <dc:title></dc:title>
      </cc:Work>
    </rdf:RDF>
  </metadata>
  <g
     inkscape:label="Layer 1"
     inkscape:groupmode="layer"
     id="layer1"
     transform="translate(758.5,1605.8438)">
    <path
       d="m -579.73545,-1249.2285 c -102.3213,-20.8085 -177.5062,-112.7133 -177.5062,-217.6289 0,-49.4246 17.0847,-99.3819 47.432,-137.5317 19.9503,6.0715 43.4419,9.667 65.1135,9.667 21.6816,0 45.0942,-3.4624 65.0347,-9.5387 19.9405,6.0763 43.3482,9.5387 65.0248,9.5387 21.6815,0 45.1682,-3.5955 65.1087,-9.667 30.3521,38.1498 47.4369,88.1071 47.4369,137.5317 0,104.9156 -75.3329,196.8154 -177.6444,217.6289"
       style="fill:#ffffff;fill-opacity:1;fill-rule:evenodd;stroke:#000000;stroke-width:2.5;stroke-miterlimit:4;stroke-opacity:1;stroke-dasharray:none"
       id="path5484"
       inkscape:connector-curvature="0" />
    <path
       d="m -689.09873,-1317.6437 c -8.2268,-8.8778 -16.3253,-18.0367 -22.9836,-28.182 -6.7175,-10.2292 -13.2082,-20.7148 -18.1353,-31.9452 -4.8927,-11.1416 -9.4943,-22.5299 -12.4191,-34.3718 -2.9346,-11.8815 -5.5634,-23.9848 -6.387,-36.2312 -0.8188,-12.2267 -1.2035,-24.4682 -0.025,-36.6949 1.1936,-12.3795 3.3242,-24.4928 6.3871,-36.5517 0.1529,-0.6067 0.1529,-0.4834 0.725,-0.4834 l 2.106,0 8.3747,0 30.8749,0 44.8822,0 53.0842,0 55.491,0 52.1027,0 42.9093,0 27.9157,0 6.5202,0 1.09,0 c 0.3058,0 1.3021,5.8939 1.4944,6.7323 2.5992,11.6891 4.5573,23.5705 5.1886,35.5457 0.6658,12.419 0.3452,24.7788 -1.0308,37.1337 -1.3465,12.1429 -3.852,24.1131 -7.2995,35.8268 -3.4574,11.7532 -7.9555,23.1266 -13.3512,34.1154 -5.5092,11.2303 -12.0491,21.8196 -19.3289,31.9649 -7.265,10.1108 -15.5707,19.3388 -24.3893,28.0982 -8.8136,8.7545 -18.6433,16.3548 -28.764,23.5064 -9.9924,7.0479 -20.8578,12.7297 -31.8712,17.9676 -11.0775,5.2626 -22.8208,9.006 -34.6283,12.2366 -2.8951,0.794 -5.8346,1.3957 -8.7643,2.0616 -1.1048,0.2515 -2.5154,-0.3847 -3.5955,-0.6264 -1.5043,-0.3403 -3.0431,-0.6214 -4.5375,-1.0308 -6.0073,-1.6473 -11.9259,-3.413 -17.8592,-5.3267 -11.6743,-3.773 -22.737,-9.3315 -33.5481,-15.0478 -5.3661,-2.836 -10.4462,-6.2638 -15.5411,-9.5486 -5.0258,-3.2404 -10.0565,-6.9592 -14.6384,-10.8161 -6.9691,-5.8544 -13.5929,-11.911 -20.049,-18.3326"
       style="fill:#155196;fill-opacity:1;fill-rule:evenodd;stroke:none"
       id="path5492"
       inkscape:connector-curvature="0" />
    <path
       d="m -740.39693,-1529.5025 c 3.2996,-11.3389 7.6201,-22.5052 12.927,-33.0599 5.5536,-11.0578 11.8223,-21.6963 19.1957,-31.6444 0.5179,-0.6954 0.878,-1.7755 1.7657,-1.5338 2.2737,0.6263 4.5524,1.2083 6.8409,1.7607 4.3846,1.0506 8.7988,1.9729 13.2328,2.7817 8.858,1.6128 17.8098,2.7324 26.7961,3.344 17.8641,1.2231 35.7824,0.1677 53.4442,-2.7127 8.7792,-1.4253 17.4646,-3.3883 26.0168,-5.8248 0.9618,-0.2712 2.1307,0.3157 3.0875,0.5771 1.0308,0.286 2.0666,0.5622 3.1023,0.8384 2.2343,0.582 4.4685,1.1344 6.7225,1.6474 4.3353,0.9765 8.6903,1.8347 13.0651,2.5893 17.6175,3.053 35.59,4.0443 53.4295,2.9642 9.001,-0.5475 17.9479,-1.7016 26.8306,-3.2256 4.4043,-0.799 8.7988,-1.6818 13.1539,-2.7126 2.1307,-0.5031 4.2564,-1.0358 6.3772,-1.5931 0.3156,-0.084 2.0024,-0.7201 2.1701,-0.4932 0.2861,0.3797 0.5672,0.7644 0.8533,1.1492 3.7632,5.0751 7.2502,10.3228 10.5547,15.7087 6.3377,10.3081 11.5509,21.2425 16.0687,32.4581 2.2343,5.5585 4.1381,11.2502 5.8742,16.9813 l -11.8962,0 -31.7134,0 -45.5776,0 -53.4787,0 -55.4122,0 -51.3925,0 -41.405,0 -25.4595,0 -5.1737,0"
       style="fill:#bf2f37;fill-opacity:1;fill-rule:evenodd;stroke:none"
       id="path5496"
       inkscape:connector-curvature="0" />
    <path
       d="m -466.30205,-1536.9248 0,-5.1935 -13.4893,0 0,-12.1921 7.6496,0 0,-5.0604 -7.6496,0 0,-9.3364 12.0589,0 0,-5.1886 -17.3807,0 0,36.971 18.811,0 z m -23.8714,-32.0438 0,-4.9272 -18.811,0 0,4.9272 6.7471,0 0,32.0438 5.3168,0 0,-32.0438 6.7471,0 z m -30.2288,16.7346 -5.3218,0 2.5943,-10.6386 2.7275,10.6386 z m 9.2082,15.3092 -9.2082,-36.971 -5.1886,0 -9.2132,36.971 5.3168,0 2.4661,-10.1207 7.916,0 2.5943,10.1207 5.3168,0 z m -25.8146,-32.0438 0,-4.9272 -18.8111,0 0,4.9272 6.7472,0 0,32.0438 5.3168,0 0,-32.0438 6.7471,0 z m -22.1846,21.9231 c 0,-5.3168 -3.1122,-9.3414 -10.2489,-13.4893 -2.7275,-1.5536 -3.5018,-2.5992 -3.5018,-4.4142 0,-2.466 1.9432,-4.281 4.4093,-4.281 2.3378,0 4.1528,1.6867 4.2811,4.281 l 5.0603,0 c -0.1282,-5.5733 -4.1528,-9.5979 -9.3414,-9.5979 -5.3168,0 -9.4647,4.2811 -9.4647,9.5979 0,3.2453 1.5536,6.101 4.5375,8.1774 7.5264,5.0604 5.45,3.6301 6.2243,4.4093 2.2047,1.6868 2.984,3.2404 2.984,5.3168 0,2.9889 -2.3329,5.5782 -5.1886,5.5782 -3.63,0 -5.1886,-3.2403 -5.1886,-6.3574 l -5.1886,0 c 0,6.101 3.8915,11.5707 10.3772,11.5707 5.7064,0 10.2489,-4.8236 10.2489,-10.7915 m -30.0957,-16.991 c 0,2.9789 -1.6868,4.6657 -4.7989,4.6657 l -5.4549,0 0,-9.3364 5.4549,0 c 2.8507,0 4.7989,1.815 4.7989,4.6707 m 5.1886,27.1117 -5.3218,-18.1649 c 3.5068,-1.2972 5.3218,-4.5425 5.3218,-8.9468 0,-5.9728 -3.8914,-9.8593 -9.7261,-9.8593 l -11.0331,0 0,36.971 5.3168,0 0,-17.3856 5.0652,0 4.9272,17.3856 5.45,0 z m -26.9835,0 0,-5.1935 -13.4943,0 0,-12.1921 7.6547,0 0,-5.0604 -7.6547,0 0,-9.3364 12.0639,0 0,-5.1886 -17.3807,0 0,36.971 18.8111,0 z m -23.8714,-32.0438 0,-4.9272 -18.811,0 0,4.9272 6.7421,0 0,32.0438 5.3218,0 0,-32.0438 6.7471,0 z m -23.8714,32.0438 0,-36.971 -5.3217,0 0,22.1846 -10.1157,-22.1846 -5.3218,0 0,36.971 5.3218,0 0,-24.7789 11.4128,24.7789 4.0246,0 z m -28.8034,-36.971 -5.1886,0 0,36.971 5.1886,0 0,-36.971 z"
       style="fill:#ffffff;fill-opacity:1;fill-rule:evenodd;stroke:none"
       id="path5500"
       inkscape:connector-curvature="0" />
  </g>
</svg>
